<svg width="385" height="359" viewBox="0 0 385 359" fill="none" xmlns="http://www.w3.org/2000/svg">
<path d="M142.018 355.203L-77.687 225.211C-84.682 221.273 -90.677 214.821 -83.862 210.589L136.625 83.367C139.93 81.315 144.952 79.968 148.321 81.93L378.916 215.937C385.91 220.003 387.166 231.329 380.196 235.433L170.972 354.998C166.581 357.549 161.601 358.909 156.523 358.945C151.445 358.981 146.446 357.691 142.019 355.203H142.018Z" fill="#5B36A0"/>
<path d="M142.018 349.203L-77.687 219.211C-84.682 215.273 -90.677 208.821 -83.862 204.589L136.625 77.367C139.93 75.315 144.952 73.968 148.321 75.93L378.916 209.937C385.91 214.003 387.166 225.329 380.196 229.433L170.972 348.998C166.581 351.549 161.601 352.909 156.523 352.945C151.445 352.981 146.446 351.691 142.019 349.203H142.018Z" fill="#6862E6"/>
<path style="mix-blend-mode:multiply" opacity="0.25" d="M160.133 177.693L116.78 202.46C116.78 202.46 183.563 243.26 197.219 249.006L222.187 213.093" fill="url(#paint0_linear)"/>
<path style="mix-blend-mode:multiply" opacity="0.25" d="M145.157 296.513L101.792 271.798L58.428 296.565C58.428 296.565 81.013 310.365 102.599 323.038C116.307 313.328 130.027 303.517 145.157 296.513Z" fill="url(#paint1_linear)"/>
<path style="mix-blend-mode:multiply" opacity="0.46" d="M51.728 143.883L24.223 159.595C24.223 159.595 26.554 173.999 40.211 179.745L76.221 156.658" fill="url(#paint2_linear)"/>
<path d="M65.192 159.595C74.3544 159.595 81.782 154.358 81.782 147.898C81.782 141.438 74.3544 136.201 65.192 136.201C56.0296 136.201 48.602 141.438 48.602 147.898C48.602 154.358 56.0296 159.595 65.192 159.595Z" fill="#68E1FD"/>
<path d="M65.179 146.089C72.0417 146.089 77.605 143.809 77.605 140.997C77.605 138.185 72.0417 135.905 65.179 135.905C58.3163 135.905 52.753 138.185 52.753 140.997C52.753 143.809 58.3163 146.089 65.179 146.089Z" fill="#974C26"/>
<path d="M64.73 132.506C64.73 130.21 64.654 127.915 64.474 125.619C64.423 125.02 64.368 124.426 64.308 123.836L64.18 122.669C64.18 122.322 64 121.386 64 121.476C63.923 121.006 63.842 120.54 63.757 120.078C62.4021 112.285 59.378 104.878 54.892 98.363C53.2041 102.385 52.3623 106.712 52.419 111.073C52.419 112.357 52.522 113.639 52.624 114.845V115.602C52.727 116.217 52.842 116.884 52.97 117.448C53.4586 119.788 54.1136 122.09 54.93 124.336C55.6642 126.404 56.5596 128.411 57.608 130.339C58.7385 132.509 59.9651 134.627 61.284 136.688C62.2355 138.192 63.2309 139.668 64.269 141.113C64.577 138.253 64.718 135.379 64.73 132.506ZM58.21 106.687C58.2757 106.392 58.2757 106.085 58.21 105.79C58.526 106.114 58.838 106.448 59.145 106.79C58.8371 106.702 58.5166 106.668 58.197 106.687H58.21Z" fill="#999A1C"/>
<path d="M68.996 134.276C70.2662 132.36 71.4338 130.378 72.494 128.338C72.776 127.808 73.049 127.278 73.314 126.748L73.839 125.683L74.339 124.58L74.889 123.297C77.9599 115.999 79.4151 108.123 79.155 100.21C75.5534 102.681 72.5007 105.868 70.188 109.573C69.5239 110.642 68.9041 111.737 68.33 112.857L68.074 113.331L68.01 113.537C67.767 114.114 67.523 114.691 67.293 115.281C66.4428 117.516 65.7534 119.809 65.23 122.143C64.7316 124.282 64.402 126.456 64.244 128.646C64.0177 131.08 63.9066 133.524 63.911 135.969C63.911 137.88 63.911 139.625 64.026 141.305C65.73 139.035 67.446 136.7 68.996 134.276ZM77.452 109.022C77.652 108.796 77.801 108.529 77.887 108.239C77.981 108.684 78.062 109.112 78.131 109.522C77.931 109.322 77.701 109.154 77.451 109.022H77.452Z" fill="#999A1C"/>
<path d="M68.907 139.997C70.211 139.348 71.4928 138.655 72.75 137.919L73.71 137.329L74.339 136.931L74.954 136.495L75.671 135.969C79.6767 133.025 82.998 129.249 85.407 124.9C82.6724 125.076 80.0035 125.814 77.567 127.068C76.862 127.428 76.183 127.825 75.504 128.235L75.21 128.415L75.107 128.505L74.159 129.21C72.9779 130.143 71.865 131.159 70.829 132.25C69.871 133.244 68.9927 134.311 68.202 135.443C67.3127 136.702 66.4583 137.985 65.64 139.291C65.0598 140.249 64.5085 141.225 63.987 142.216C65.64 141.523 67.293 140.805 68.907 139.996V139.997ZM81.615 129.095C81.7963 129.038 81.9627 128.941 82.102 128.812C82.008 129.086 81.906 129.355 81.794 129.62C81.7607 129.441 81.7003 129.268 81.615 129.107V129.095ZM64.73 132.506C64.73 130.21 64.654 127.915 64.474 125.619C64.423 125.02 64.368 124.426 64.308 123.836L64.18 122.669C64.18 122.322 64 121.386 64 121.476C63.923 121.006 63.842 120.54 63.757 120.078C62.4021 112.285 59.378 104.878 54.892 98.363C53.2041 102.385 52.3623 106.712 52.419 111.073C52.419 112.357 52.522 113.639 52.624 114.845V115.602C52.727 116.217 52.842 116.884 52.97 117.448C53.4586 119.788 54.1136 122.09 54.93 124.336C55.6642 126.404 56.5596 128.411 57.608 130.339C58.7385 132.509 59.9651 134.627 61.284 136.688C62.2355 138.192 63.2309 139.668 64.269 141.113C64.577 138.253 64.718 135.379 64.73 132.506ZM58.21 106.687C58.2757 106.392 58.2757 106.085 58.21 105.79C58.526 106.114 58.838 106.448 59.145 106.79C58.8371 106.702 58.5166 106.668 58.197 106.687H58.21Z" fill="#999A1C"/>
<path d="M68.996 134.276C70.2662 132.36 71.4338 130.378 72.494 128.338C72.776 127.808 73.049 127.278 73.314 126.748L73.839 125.683L74.339 124.58L74.889 123.297C77.9599 115.999 79.4151 108.123 79.155 100.21C75.5534 102.681 72.5007 105.868 70.188 109.573C69.5239 110.642 68.9041 111.737 68.33 112.857L68.074 113.331L68.01 113.537C67.767 114.114 67.523 114.691 67.293 115.281C66.4428 117.516 65.7534 119.809 65.23 122.143C64.7316 124.282 64.402 126.456 64.244 128.646C64.0177 131.08 63.9066 133.524 63.911 135.969C63.911 137.88 63.911 139.625 64.026 141.305C65.73 139.035 67.446 136.7 68.996 134.276ZM77.452 109.022C77.652 108.796 77.801 108.529 77.887 108.239C77.981 108.684 78.062 109.112 78.131 109.522C77.931 109.322 77.701 109.154 77.451 109.022H77.452Z" fill="#999A1C"/>
<path d="M68.907 139.997C70.211 139.348 71.4928 138.655 72.75 137.919L73.71 137.329L74.339 136.931L74.954 136.495L75.671 135.969C79.6767 133.025 82.998 129.249 85.407 124.9C82.6724 125.076 80.0035 125.814 77.567 127.068C76.862 127.428 76.183 127.825 75.504 128.235L75.21 128.415L75.107 128.505L74.159 129.21C72.9779 130.143 71.8651 131.159 70.829 132.25C69.871 133.244 68.9927 134.311 68.202 135.443C67.3127 136.702 66.4583 137.985 65.64 139.291C65.0598 140.249 64.5085 141.225 63.987 142.216C65.64 141.523 67.293 140.805 68.907 139.996V139.997ZM81.615 129.095C81.7963 129.038 81.9627 128.941 82.102 128.812C82.008 129.086 81.906 129.355 81.794 129.62C81.7607 129.441 81.7003 129.268 81.615 129.107V129.095Z" fill="#999A1C"/>
<path d="M177.35 168.022L153.356 179.565C152.452 180.001 151.683 180.674 151.132 181.514C150.582 182.353 150.27 183.326 150.23 184.33C150.191 185.333 150.425 186.328 150.908 187.208C151.391 188.088 152.105 188.82 152.972 189.325L209.839 222.545C211.068 223.264 212.528 223.48 213.912 223.148C215.297 222.816 216.5 221.961 217.269 220.763L231.092 199.24" fill="#A1482D"/>
<path d="M307.854 112.344L116.524 1.962C115.212 1.20643 113.724 0.809576 112.21 0.811331C110.695 0.813086 109.208 1.21339 107.898 1.972C106.587 2.73143 105.498 3.82224 104.741 5.13508C103.984 6.44792 103.586 7.93664 103.586 9.452V124.285C103.586 125.545 103.917 126.784 104.547 127.875C105.176 128.967 106.082 129.874 107.173 130.505L311.146 248.39C311.849 248.798 312.648 249.013 313.462 249.014C314.275 249.014 315.074 248.8 315.778 248.393C316.482 247.985 317.067 247.399 317.473 246.694C317.879 245.989 318.092 245.189 318.09 244.375V130.018C318.088 126.432 317.14 122.91 315.343 119.808C313.546 116.705 310.963 114.13 307.854 112.344Z" fill="#F47B56"/>
<path d="M116.537 10.646L302.089 117.526C304.071 118.669 305.716 120.314 306.861 122.295C308.005 124.277 308.608 126.524 308.609 128.812V214.888C308.608 215.711 308.391 216.52 307.979 217.233C307.568 217.947 306.977 218.54 306.265 218.953C305.553 219.366 304.746 219.584 303.923 219.587C303.1 219.589 302.291 219.375 301.577 218.967L112.348 110.304C111.639 109.897 111.051 109.311 110.642 108.604C110.232 107.897 110.017 107.094 110.017 106.277V14.429C110.017 12.874 110.844 11.437 112.188 10.657C112.848 10.2736 113.598 10.0708 114.361 10.0689C115.125 10.0669 115.876 10.266 116.538 10.646H116.537Z" fill="white"/>
<path d="M194.611 172.999C196.8 172.577 198.183 170.206 197.701 167.702C197.219 165.198 195.054 163.51 192.865 163.931C190.676 164.353 189.293 166.724 189.775 169.228C190.257 171.732 192.422 173.42 194.611 172.999Z" fill="#AB643C"/>
<path opacity="0.32" d="M166.41 127.427L252.64 179.296L295.235 154.503L219.126 110.15" fill="url(#paint3_linear)"/>
<path d="M272.97 117.102L179.746 60.192C179.247 59.9032 178.68 59.7535 178.103 59.7584C177.527 59.7634 176.962 59.9227 176.468 60.22C175.974 60.5173 175.568 60.9416 175.292 61.4487C175.017 61.9558 174.883 62.5274 174.903 63.104V95.53C174.899 96.1163 175.047 96.6937 175.332 97.206C175.617 97.7183 176.03 98.1483 176.53 98.454L269.742 154.158C270.739 154.725 271.962 154.718 272.952 154.138C273.439 153.853 273.842 153.446 274.122 152.956C274.402 152.466 274.548 151.912 274.546 151.348L275.033 121.118C275.069 120.327 274.897 119.54 274.536 118.836C274.174 118.132 273.634 117.534 272.97 117.103V117.102Z" fill="#E2AC00"/>
<path d="M250.667 133.789C254.01 138.47 259.89 139.779 263.785 136.726C267.679 133.673 268.128 127.402 264.785 122.733C261.44 118.064 255.56 116.743 251.665 119.796C247.771 122.848 247.323 129.107 250.667 133.789Z" fill="white"/>
<path d="M241.52 111.318L203.497 88.398C203.17 88.245 202.798 88.2194 202.454 88.3263C202.11 88.4333 201.818 88.6649 201.635 88.976C201.452 89.2873 201.392 89.6555 201.467 90.0088C201.541 90.362 201.744 90.6748 202.037 90.886L240.059 113.806C240.386 113.959 240.758 113.985 241.102 113.878C241.446 113.771 241.738 113.539 241.921 113.228C242.104 112.917 242.164 112.549 242.09 112.195C242.016 111.842 241.813 111.529 241.52 111.318ZM239.957 120.63L187.547 89.039C187.226 88.9288 186.876 88.9346 186.559 89.0556C186.242 89.1765 185.978 89.4049 185.811 89.7009C185.645 89.9969 185.588 90.3417 185.65 90.6754C185.712 91.0091 185.89 91.3105 186.151 91.527L238.496 123.13C238.823 123.283 239.195 123.309 239.539 123.202C239.883 123.095 240.175 122.863 240.358 122.552C240.541 122.241 240.601 121.873 240.527 121.519C240.453 121.166 240.25 120.853 239.957 120.642V120.629V120.63Z" fill="#F2F2F2"/>
<path d="M254.369 123.387L161.196 66.49C160.697 66.2012 160.13 66.0515 159.553 66.0564C158.977 66.0614 158.412 66.2208 157.918 66.518C157.424 66.8153 157.018 67.2396 156.742 67.7467C156.467 68.2538 156.333 68.8254 156.353 69.402V101.813C156.345 102.401 156.49 102.98 156.773 103.495C157.056 104.01 157.468 104.443 157.968 104.751L251.179 160.454C252.187 161.034 253.429 161.024 254.427 160.429C254.918 160.136 255.322 159.718 255.597 159.218C255.873 158.717 256.011 158.152 255.996 157.581L256.483 127.351C256.505 126.564 256.321 125.784 255.95 125.089C255.58 124.394 255.035 123.808 254.369 123.387Z" fill="#F47B56"/>
<path d="M232.065 140.074C235.409 144.755 241.289 146.064 245.184 143.011C249.078 139.958 249.526 133.686 246.183 129.018C242.839 124.348 236.959 123.028 233.065 126.08C229.17 129.133 228.722 135.392 232.065 140.074Z" fill="white"/>
<path d="M222.918 117.602L184.87 94.682C184.543 94.529 184.171 94.5034 183.827 94.6103C183.483 94.7173 183.19 94.9489 183.008 95.26C182.825 95.5713 182.765 95.9395 182.839 96.2928C182.914 96.646 183.117 96.9588 183.41 97.17L221.432 120.09C221.759 120.243 222.13 120.269 222.475 120.162C222.819 120.055 223.111 119.823 223.294 119.512C223.477 119.201 223.537 118.833 223.463 118.479C223.389 118.126 223.186 117.813 222.893 117.602H222.918ZM221.343 126.978L168.946 95.336C168.619 95.1831 168.247 95.1577 167.903 95.2648C167.558 95.3719 167.266 95.6038 167.084 95.915C166.901 96.2263 166.841 96.5945 166.915 96.9478C166.99 97.301 167.193 97.6138 167.486 97.825L219.895 129.415C220.222 129.568 220.593 129.594 220.938 129.487C221.282 129.38 221.574 129.148 221.757 128.837C221.94 128.526 222 128.157 221.925 127.804C221.851 127.451 221.648 127.138 221.355 126.927L221.343 126.978Z" fill="#F2F2F2"/>
<path d="M230.99 127.21L137.79 70.313C137.291 70.0241 136.724 69.8742 136.147 69.8789C135.571 69.8837 135.006 70.0429 134.512 70.34C134.018 70.6375 133.612 71.0618 133.337 71.5689C133.062 72.076 132.928 72.6475 132.948 73.224V105.636C132.944 106.222 133.092 106.8 133.377 107.312C133.662 107.824 134.075 108.254 134.575 108.56L227.786 164.264C228.794 164.844 230.036 164.834 231.035 164.238C231.525 163.945 231.929 163.527 232.205 163.027C232.48 162.527 232.618 161.962 232.603 161.391L233.09 131.16C233.111 130.376 232.928 129.601 232.56 128.909C232.192 128.216 231.651 127.631 230.99 127.21Z" fill="#68E1FD"/>
<path d="M230.99 127.21L137.79 70.313C137.291 70.0241 136.724 69.8742 136.147 69.8789C135.571 69.8837 135.006 70.0429 134.512 70.34C134.018 70.6375 133.612 71.0618 133.337 71.5689C133.062 72.076 132.928 72.6475 132.948 73.224V105.636C132.944 106.222 133.092 106.8 133.377 107.312C133.662 107.824 134.075 108.254 134.575 108.56L227.786 164.264C228.794 164.844 230.036 164.834 231.035 164.238C231.525 163.945 231.929 163.527 232.205 163.027C232.48 162.527 232.618 161.962 232.603 161.391L233.09 131.16C233.111 130.376 232.928 129.601 232.56 128.909C232.192 128.216 231.651 127.631 230.99 127.21Z" fill="#68E1FD"/>
<path d="M208.673 143.896C212.016 148.577 217.897 149.886 221.791 146.833C225.686 143.78 226.134 137.508 222.791 132.84C219.447 128.171 213.566 126.85 209.672 129.903C205.778 132.955 205.368 139.214 208.672 143.896H208.673Z" fill="white"/>
<path d="M199.526 121.425L161.491 98.505C161.164 98.352 160.792 98.3264 160.448 98.4333C160.104 98.5403 159.811 98.7719 159.629 99.083C159.446 99.3942 159.386 99.7623 159.46 100.116C159.534 100.469 159.737 100.782 160.03 100.993L198.053 123.913C198.38 124.066 198.751 124.092 199.096 123.985C199.44 123.878 199.732 123.646 199.915 123.335C200.098 123.024 200.158 122.655 200.083 122.302C200.009 121.949 199.806 121.636 199.513 121.425H199.526ZM197.95 130.75L145.541 99.158C145.214 99.0051 144.842 98.9796 144.498 99.0868C144.153 99.1939 143.861 99.4258 143.679 99.737C143.496 100.048 143.436 100.417 143.51 100.77C143.585 101.123 143.788 101.436 144.081 101.647L196.49 133.237C196.817 133.39 197.188 133.416 197.533 133.309C197.877 133.202 198.169 132.97 198.352 132.659C198.535 132.348 198.595 131.979 198.52 131.626C198.446 131.273 198.243 130.96 197.95 130.749V130.75Z" fill="#F2F2F2"/>
<path d="M108.672 124.028C102.648 129.22 98.0936 135.903 95.464 143.408C90.826 156.235 102.42 177.192 102.42 177.192L120.458 162.892" fill="#FF8F6F"/>
<path d="M106.724 293.602L101.831 290.896L103.111 283.893C103.111 283.893 110.401 284.585 111.041 287.176" fill="#003B94"/>
<path d="M108.518 293.5C109.62 292.82 110.773 292.217 111.913 291.614C114.743 290.062 118.831 288.459 120.573 285.547C120.93 284.958 121.099 284.275 121.058 283.587C121.017 282.9 120.768 282.241 120.343 281.699C117.78 278.595 112.169 283.7 109.299 280.263C108.736 279.583 108.467 268.796 108.467 268.796L97.552 271.746C97.552 271.746 95.707 293.422 95.912 294.756C96.117 296.09 99.871 297.322 99.871 297.322C100.989 297.084 102.056 296.65 103.022 296.039C104.162 295.205 103.124 285.034 104.585 286.458C106.045 287.882 106.685 293.448 106.685 293.448C107.292 293.54 107.907 293.558 108.518 293.499V293.5Z" fill="#F47B56"/>
<path d="M127.568 304.08L122.674 301.413L123.954 294.41C123.954 294.41 131.244 295.103 131.884 297.693" fill="#003B94"/>
<path d="M129.412 303.978C130.514 303.298 131.667 302.696 132.807 302.093C135.638 300.541 139.725 298.938 141.467 296.026C141.824 295.437 141.993 294.754 141.952 294.066C141.911 293.379 141.662 292.72 141.237 292.178C138.674 289.074 133.063 294.179 130.194 290.742C129.63 290.062 129.361 279.275 129.361 279.275L118.446 282.225C118.446 282.225 116.589 303.978 116.794 305.261C116.999 306.543 120.752 307.826 120.752 307.826C121.87 307.588 122.937 307.154 123.904 306.543C125.044 305.71 124.006 295.539 125.467 296.963C126.927 298.386 127.567 303.953 127.567 303.953C128.179 304.037 128.798 304.046 129.412 303.978Z" fill="#F47B56"/>
<path d="M92.005 233.614L88.789 276.672C88.789 276.672 93.914 283.752 111.093 279.814L111.259 250.788L92.005 233.614ZM111.849 242.144C111.477 245.85 111.849 286.74 111.849 286.74C111.849 286.74 116.601 295.641 137.291 286.74L136.996 251.994" fill="#3E2928"/>
<path d="M90.403 247.838C91.813 248.813 92.299 243.798 93.773 244.658C99.1321 247.775 104.821 250.287 110.734 252.148H110.862C111.003 252.079 111.156 252.04 111.313 252.032C111.469 252.024 111.626 252.047 111.773 252.101C111.92 252.155 112.055 252.238 112.169 252.345C112.283 252.453 112.375 252.582 112.438 252.725C116.091 253.816 119.809 254.673 123.571 255.29C128.401 256.06 132.397 252.482 137.355 252.238C137.355 233.23 137.445 179.129 129.361 167.586L105.443 159.531C105.328 161.506 93.837 174.845 94.118 191.109C94.438 209.437 92.056 226.727 91.646 232.46C91.582 233.435 90.455 246.8 90.403 247.838Z" fill="#3E2928"/>
<path d="M131.564 145.73L129.361 167.534C129.361 167.534 111.516 168.253 103.829 162.943V144.447" fill="#FF8F6F"/>
<path d="M154.252 131.378L152.433 133.866C153.403 131.842 154.259 129.766 154.995 127.646C155.508 126.196 153.189 125.619 152.677 127.068L152.407 127.812C152.63 127.042 152.839 126.269 153.035 125.49C153.076 125.337 153.085 125.177 153.064 125.02C153.042 124.863 152.989 124.712 152.909 124.575C152.828 124.439 152.721 124.32 152.594 124.225C152.467 124.13 152.322 124.062 152.169 124.024C152.015 123.985 151.855 123.978 151.698 124.002C151.542 124.026 151.391 124.081 151.256 124.164C151.121 124.247 151.003 124.356 150.911 124.484C150.818 124.613 150.752 124.759 150.716 124.913C150.214 126.926 149.611 128.912 148.91 130.865C149.302 129.131 149.584 127.374 149.756 125.605C149.91 124.08 147.514 124.144 147.373 125.605C147.174 127.619 146.814 129.614 146.297 131.57C146.297 130.886 146.233 130.202 146.105 129.518C146.088 129.347 146.034 129.182 145.948 129.034C145.862 128.886 145.745 128.758 145.605 128.658C145.54 128.39 145.463 128.124 145.375 127.863C145.285 127.594 145.102 127.366 144.86 127.218C144.618 127.071 144.331 127.014 144.051 127.057C143.771 127.1 143.515 127.24 143.328 127.454C143.141 127.667 143.036 127.939 143.03 128.223L142.876 137.201C142.443 138.131 141.877 138.996 141.198 139.766C142.351 140.564 143.463 141.42 144.529 142.331C145.48 143.136 146.387 143.992 147.245 144.896C148.011 143.942 148.75 142.967 149.461 141.972C149.549 141.897 149.627 141.811 149.691 141.715C151.825 138.554 154.029 135.441 156.302 132.378C157.25 131.326 155.162 130.159 154.252 131.378Z" fill="#FFB5A9"/>
<path d="M120.24 125.85C120.24 125.85 128.67 128.12 132.09 133.545C134.232 137.301 136.12 141.196 137.74 145.205L143.965 135.52C143.965 135.52 151.524 137.842 154.521 141.562C154.521 141.562 145.554 161.185 137.739 162.866C129.925 164.546 121.623 151.348 121.623 151.348C121.623 151.348 119.907 156.863 120.24 150.976" fill="#FF8F6F"/>
<path d="M125.595 146.82C123.144 144.823 121.295 142.186 120.253 139.202C119.24 135.752 120.509 132.724 121.687 129.518C122.963 126.339 123.708 122.972 123.891 119.552C123.993 116.192 123.609 112.832 123.378 109.483C123.345 109.34 123.345 109.19 123.378 109.047C122.251 105.264 119.945 102.057 115.398 101.672C103.624 100.672 102.958 113.729 103.048 119.039C103.138 124.349 103.701 127.94 99.794 130.159C95.886 132.378 93.068 138.201 96.796 142.909C100.524 147.615 97.18 145.897 94.695 150.078C92.21 154.259 92.85 159.48 97.949 161.365C103.048 163.25 126.748 159.71 128.925 157.517C129.698 156.633 130.098 155.484 130.04 154.311C129.509 151.36 127.931 148.701 125.595 146.821V146.82Z" fill="#007F68"/>
<path d="M137.176 39.132C139.172 42.008 140.325 45.3841 140.506 48.88C140.729 50.4805 140.341 52.1064 139.418 53.433C139.025 53.8657 138.5 54.155 137.924 54.255C137.348 54.355 136.756 54.26 136.24 53.985C135.593 53.7266 135.008 53.3332 134.524 52.831C134.089 52.4225 133.718 51.9513 133.422 51.433L133.115 50.83C133.031 50.9877 132.928 51.1342 132.807 51.266C132.502 51.5039 132.14 51.6586 131.757 51.715C131.116 51.8337 130.454 51.7531 129.861 51.484C128.445 50.8702 127.266 49.8123 126.504 48.47C125.585 47.0107 125.072 45.3327 125.018 43.609C124.924 42.9195 124.982 42.2178 125.188 41.5531C125.394 40.8885 125.743 40.2768 126.21 39.761C126.616 39.3691 127.132 39.1119 127.689 39.0245C128.246 38.9372 128.817 39.024 129.323 39.273C129.836 39.478 130.309 39.773 130.719 40.146C131.069 40.443 131.378 40.783 131.641 41.159L131.871 41.569V40.428L134.434 41.428L134.69 48.637C134.708 49.153 134.868 49.654 135.152 50.086C135.392 50.503 135.761 50.831 136.202 51.022C137.44 51.51 138.012 50.441 137.919 47.816C137.79 45.2163 136.933 42.7052 135.446 40.569C134.111 38.397 132.125 36.7007 129.771 35.721C128.917 35.2863 127.952 35.1187 127.001 35.2399C126.051 35.3612 125.159 35.7658 124.441 36.401C123.676 37.1712 123.093 38.1035 122.736 39.129C122.379 40.1545 122.257 41.247 122.379 42.326C122.525 45.0751 123.41 47.7339 124.941 50.022C126.159 52.2805 128.079 54.0813 130.411 55.152C131.223 55.492 132.095 55.662 132.974 55.652C133.546 55.691 134.119 55.5854 134.639 55.345L135.152 55.062L136.702 57.948L136.445 58.128C136.202 58.2647 135.95 58.3846 135.69 58.487C135.28 58.664 134.85 58.785 134.408 58.847C133.843 58.9229 133.27 58.9229 132.705 58.847C131.962 58.7582 131.234 58.5726 130.54 58.295C128.567 57.4451 126.814 56.1553 125.415 54.524C123.757 52.6885 122.415 50.5907 121.444 48.316C120.471 46.1428 119.915 43.8064 119.804 41.428C119.666 39.428 120.074 37.429 120.983 35.644C121.737 34.1463 123.041 32.9975 124.621 32.437C126.277 31.8912 128.076 31.9829 129.668 32.694C132.777 34.0099 135.401 36.2597 137.176 39.132ZM131.526 48.252C131.946 47.714 132.136 47.031 132.051 46.353C132.03 45.5174 131.797 44.7009 131.372 43.981C131.025 43.3526 130.48 42.8566 129.822 42.57C129.57 42.4397 129.284 42.3895 129.002 42.4261C128.72 42.4628 128.457 42.5845 128.246 42.775C128.025 43.0269 127.86 43.3233 127.763 43.6441C127.666 43.9649 127.639 44.3027 127.683 44.635C127.712 45.481 127.963 46.304 128.413 47.02C128.783 47.672 129.353 48.185 130.04 48.483C130.28 48.6062 130.554 48.6502 130.82 48.6087C131.087 48.5672 131.334 48.4424 131.526 48.252ZM288.433 178.013C290.432 180.887 291.585 184.264 291.763 187.761C291.986 189.362 291.598 190.987 290.675 192.314C290.281 192.745 289.756 193.032 289.181 193.132C288.606 193.232 288.014 193.138 287.498 192.866C286.852 192.604 286.268 192.211 285.781 191.712C285.348 191.301 284.977 190.83 284.679 190.313L284.372 189.711C284.285 189.867 284.182 190.013 284.064 190.147C283.76 190.387 283.398 190.542 283.014 190.596C282.379 190.724 281.72 190.647 281.131 190.378C279.713 189.761 278.534 188.698 277.774 187.351C276.846 185.89 276.329 184.207 276.275 182.477C276.178 181.787 276.234 181.085 276.44 180.42C276.646 179.754 276.997 179.143 277.467 178.629C277.871 178.238 278.385 177.982 278.94 177.895C279.495 177.808 280.063 177.894 280.567 178.142C281.081 178.346 281.554 178.641 281.963 179.014C282.313 179.316 282.623 179.661 282.886 180.04L283.129 180.45V179.309L285.691 180.296L285.948 187.505C285.97 188.02 286.129 188.52 286.408 188.954C286.65 189.371 287.018 189.699 287.459 189.89C288.74 190.378 289.266 189.313 289.189 186.684C289.059 184.081 288.202 181.565 286.716 179.424C285.381 177.26 283.4 175.569 281.054 174.589C280.201 174.154 279.237 173.986 278.287 174.104C277.336 174.223 276.444 174.624 275.724 175.256C274.962 176.035 274.386 176.976 274.038 178.009C273.69 179.041 273.579 180.139 273.714 181.22C273.857 183.969 274.742 186.628 276.275 188.915C277.541 191.12 279.481 192.86 281.81 193.879C282.622 194.217 283.493 194.392 284.372 194.392C284.944 194.425 285.515 194.32 286.037 194.084L286.55 193.802L288.1 196.688L287.844 196.868C287.6 197.005 287.348 197.125 287.088 197.227C286.676 197.397 286.246 197.517 285.807 197.586C285.237 197.662 284.66 197.662 284.09 197.586C283.351 197.493 282.628 197.303 281.938 197.022C279.966 196.176 278.213 194.89 276.813 193.263C275.155 191.423 273.814 189.321 272.843 187.043C271.869 184.87 271.313 182.534 271.203 180.155C271.064 178.16 271.471 176.164 272.381 174.383C273.137 172.884 274.439 171.732 276.019 171.164C277.68 170.624 279.482 170.715 281.079 171.421C284.152 172.806 286.722 175.109 288.433 178.013ZM282.783 187.133C282.994 186.868 283.149 186.563 283.242 186.237C283.334 185.911 283.361 185.57 283.321 185.234C283.299 184.397 283.061 183.58 282.63 182.862C282.289 182.233 281.748 181.736 281.092 181.451C280.841 181.319 280.556 181.267 280.275 181.301C279.993 181.336 279.729 181.455 279.517 181.643C279.292 181.893 279.124 182.188 279.024 182.51C278.925 182.831 278.896 183.17 278.94 183.503C278.97 184.345 279.221 185.163 279.67 185.876C280.039 186.531 280.61 187.048 281.297 187.351C281.536 187.476 281.808 187.522 282.075 187.483C282.342 187.444 282.59 187.321 282.783 187.133Z" fill="#F47B56"/>
<path style="mix-blend-mode:multiply" opacity="0.25" d="M33.139 232.704L-10.226 208L-53.577 232.754C-53.577 232.754 -29.455 247.837 -7.86799 260.51C5.83901 250.813 18.022 239.719 33.139 232.703V232.704Z" fill="url(#paint4_linear)"/>
<defs>
<linearGradient id="paint0_linear" x1="181.269" y1="203.95" x2="167.327" y2="222.867" gradientUnits="userSpaceOnUse">
<stop stop-color="#78B46A"/>
<stop offset="0.03" stop-color="#7F3500"/>
<stop offset="1" stop-color="white"/>
</linearGradient>
<linearGradient id="paint1_linear" x1="129.707" y1="286.411" x2="100.466" y2="318.513" gradientUnits="userSpaceOnUse">
<stop stop-color="#78B46A"/>
<stop offset="0.03" stop-color="#7F3500"/>
<stop offset="1" stop-color="white"/>
</linearGradient>
<linearGradient id="paint2_linear" x1="66.1646" y1="151.724" x2="44.2402" y2="175.796" gradientUnits="userSpaceOnUse">
<stop stop-color="#78B46A"/>
<stop offset="0.03" stop-color="#7F3500"/>
<stop offset="1" stop-color="white"/>
</linearGradient>
<linearGradient id="paint3_linear" x1="270.779" y1="152.045" x2="257.641" y2="142.452" gradientUnits="userSpaceOnUse">
<stop stop-color="white" stop-opacity="0"/>
<stop offset="0.99" stop-color="#DC841E"/>
</linearGradient>
<linearGradient id="paint4_linear" x1="17.6888" y1="222.46" x2="-11.9798" y2="255.032" gradientUnits="userSpaceOnUse">
<stop stop-color="#78B46A"/>
<stop offset="0.03" stop-color="#7F3500"/>
<stop offset="1" stop-color="white"/>
</linearGradient>
</defs>
</svg>
