<svg width="517" height="359" viewBox="0 0 517 359" fill="none" xmlns="http://www.w3.org/2000/svg">
<path d="M274.018 355.203L54.313 225.211C47.318 221.273 41.323 214.821 48.138 210.589L268.625 83.367C271.93 81.315 276.952 79.968 280.321 81.93L510.916 215.937C517.91 220.003 519.166 231.329 512.196 235.433L302.972 354.998C298.581 357.549 293.601 358.909 288.523 358.945C283.445 358.981 278.446 357.691 274.019 355.203H274.018Z" fill="#5B36A0"/>
<path d="M274.018 349.203L54.313 219.211C47.318 215.273 41.323 208.821 48.138 204.589L268.625 77.367C271.93 75.315 276.952 73.968 280.321 75.93L510.916 209.937C517.91 214.003 519.166 225.329 512.196 229.433L302.972 348.998C298.581 351.549 293.601 352.909 288.523 352.945C283.445 352.981 278.446 351.691 274.019 349.203H274.018Z" fill="#6862E6"/>
<path style="mix-blend-mode:multiply" opacity="0.25" d="M292.133 177.693L248.78 202.46C248.78 202.46 315.563 243.26 329.219 249.006L354.187 213.093" fill="url(#paint0_linear)"/>
<path style="mix-blend-mode:multiply" opacity="0.25" d="M277.157 296.513L233.792 271.798L190.428 296.565C190.428 296.565 213.013 310.365 234.599 323.038C248.307 313.328 262.027 303.517 277.157 296.513Z" fill="url(#paint1_linear)"/>
<path style="mix-blend-mode:multiply" opacity="0.46" d="M183.728 143.883L156.223 159.595C156.223 159.595 158.554 173.999 172.211 179.745L208.221 156.658" fill="url(#paint2_linear)"/>
<path d="M197.192 159.595C206.354 159.595 213.782 154.358 213.782 147.898C213.782 141.438 206.354 136.201 197.192 136.201C188.03 136.201 180.602 141.438 180.602 147.898C180.602 154.358 188.03 159.595 197.192 159.595Z" fill="#68E1FD"/>
<path d="M197.179 146.089C204.042 146.089 209.605 143.809 209.605 140.997C209.605 138.185 204.042 135.905 197.179 135.905C190.316 135.905 184.753 138.185 184.753 140.997C184.753 143.809 190.316 146.089 197.179 146.089Z" fill="#974C26"/>
<path d="M196.73 132.506C196.73 130.21 196.654 127.915 196.474 125.619C196.423 125.02 196.368 124.426 196.308 123.836L196.18 122.669C196.18 122.322 196 121.386 196 121.476C195.923 121.006 195.842 120.54 195.757 120.078C194.402 112.285 191.378 104.878 186.892 98.363C185.204 102.385 184.362 106.712 184.419 111.073C184.419 112.357 184.522 113.639 184.624 114.845V115.602C184.727 116.217 184.842 116.884 184.97 117.448C185.459 119.788 186.114 122.09 186.93 124.336C187.664 126.404 188.56 128.411 189.608 130.339C190.739 132.509 191.965 134.627 193.284 136.688C194.235 138.192 195.231 139.668 196.269 141.113C196.577 138.253 196.718 135.379 196.73 132.506ZM190.21 106.687C190.276 106.392 190.276 106.085 190.21 105.79C190.526 106.114 190.838 106.448 191.145 106.79C190.837 106.702 190.517 106.668 190.197 106.687H190.21Z" fill="#999A1C"/>
<path d="M200.996 134.276C202.266 132.36 203.434 130.378 204.494 128.338C204.776 127.808 205.049 127.278 205.314 126.748L205.839 125.683L206.339 124.58L206.889 123.297C209.96 115.999 211.415 108.123 211.155 100.21C207.553 102.681 204.501 105.868 202.188 109.573C201.524 110.642 200.904 111.737 200.33 112.857L200.074 113.331L200.01 113.537C199.767 114.114 199.523 114.691 199.293 115.281C198.443 117.516 197.753 119.809 197.23 122.143C196.732 124.282 196.402 126.456 196.244 128.646C196.018 131.08 195.907 133.524 195.911 135.969C195.911 137.88 195.911 139.625 196.026 141.305C197.73 139.035 199.446 136.7 200.996 134.276ZM209.452 109.022C209.652 108.796 209.801 108.529 209.887 108.239C209.981 108.684 210.062 109.112 210.131 109.522C209.931 109.322 209.701 109.154 209.451 109.022H209.452Z" fill="#999A1C"/>
<path d="M200.907 139.997C202.211 139.348 203.493 138.655 204.75 137.919L205.71 137.329L206.339 136.931L206.954 136.495L207.671 135.969C211.677 133.025 214.998 129.249 217.407 124.9C214.672 125.076 212.003 125.814 209.567 127.068C208.862 127.428 208.183 127.825 207.504 128.235L207.21 128.415L207.107 128.505L206.159 129.21C204.978 130.143 203.865 131.159 202.829 132.25C201.871 133.244 200.993 134.311 200.202 135.443C199.313 136.702 198.458 137.985 197.64 139.291C197.06 140.249 196.509 141.225 195.987 142.216C197.64 141.523 199.293 140.805 200.907 139.996V139.997ZM213.615 129.095C213.796 129.038 213.963 128.941 214.102 128.812C214.008 129.086 213.906 129.355 213.794 129.62C213.761 129.441 213.7 129.268 213.615 129.107V129.095ZM196.73 132.506C196.73 130.21 196.654 127.915 196.474 125.619C196.423 125.02 196.368 124.426 196.308 123.836L196.18 122.669C196.18 122.322 196 121.386 196 121.476C195.923 121.006 195.842 120.54 195.757 120.078C194.402 112.285 191.378 104.878 186.892 98.363C185.204 102.385 184.362 106.712 184.419 111.073C184.419 112.357 184.522 113.639 184.624 114.845V115.602C184.727 116.217 184.842 116.884 184.97 117.448C185.459 119.788 186.114 122.09 186.93 124.336C187.664 126.404 188.56 128.411 189.608 130.339C190.739 132.509 191.965 134.627 193.284 136.688C194.235 138.192 195.231 139.668 196.269 141.113C196.577 138.253 196.718 135.379 196.73 132.506ZM190.21 106.687C190.276 106.392 190.276 106.085 190.21 105.79C190.526 106.114 190.838 106.448 191.145 106.79C190.837 106.702 190.517 106.668 190.197 106.687H190.21Z" fill="#999A1C"/>
<path d="M200.996 134.276C202.266 132.36 203.434 130.378 204.494 128.338C204.776 127.808 205.049 127.278 205.314 126.748L205.839 125.683L206.339 124.58L206.889 123.297C209.96 115.999 211.415 108.123 211.155 100.21C207.553 102.681 204.501 105.868 202.188 109.573C201.524 110.642 200.904 111.737 200.33 112.857L200.074 113.331L200.01 113.537C199.767 114.114 199.523 114.691 199.293 115.281C198.443 117.516 197.753 119.809 197.23 122.143C196.732 124.282 196.402 126.456 196.244 128.646C196.018 131.08 195.907 133.524 195.911 135.969C195.911 137.88 195.911 139.625 196.026 141.305C197.73 139.035 199.446 136.7 200.996 134.276ZM209.452 109.022C209.652 108.796 209.801 108.529 209.887 108.239C209.981 108.684 210.062 109.112 210.131 109.522C209.931 109.322 209.701 109.154 209.451 109.022H209.452Z" fill="#999A1C"/>
<path d="M200.907 139.997C202.211 139.348 203.493 138.655 204.75 137.919L205.71 137.329L206.339 136.931L206.954 136.495L207.671 135.969C211.677 133.025 214.998 129.249 217.407 124.9C214.672 125.076 212.003 125.814 209.567 127.068C208.862 127.428 208.183 127.825 207.504 128.235L207.21 128.415L207.107 128.505L206.159 129.21C204.978 130.143 203.865 131.159 202.829 132.25C201.871 133.244 200.993 134.311 200.202 135.443C199.313 136.702 198.458 137.985 197.64 139.291C197.06 140.249 196.509 141.225 195.987 142.216C197.64 141.523 199.293 140.805 200.907 139.996V139.997ZM213.615 129.095C213.796 129.038 213.963 128.941 214.102 128.812C214.008 129.086 213.906 129.355 213.794 129.62C213.761 129.441 213.7 129.268 213.615 129.107V129.095Z" fill="#999A1C"/>
<path d="M309.35 168.022L285.356 179.565C284.452 180.001 283.683 180.674 283.132 181.514C282.582 182.353 282.27 183.326 282.23 184.33C282.191 185.333 282.425 186.328 282.908 187.208C283.391 188.088 284.105 188.82 284.972 189.325L341.839 222.545C343.068 223.264 344.528 223.48 345.912 223.148C347.297 222.816 348.5 221.961 349.269 220.763L363.092 199.24" fill="#A1482D"/>
<path d="M439.854 112.344L248.524 1.962C247.212 1.20643 245.724 0.809576 244.21 0.811331C242.695 0.813086 241.208 1.21339 239.898 1.972C238.587 2.73143 237.498 3.82224 236.741 5.13508C235.984 6.44792 235.586 7.93664 235.586 9.452V124.285C235.586 125.545 235.917 126.784 236.547 127.875C237.176 128.967 238.082 129.874 239.173 130.505L443.146 248.39C443.849 248.798 444.648 249.013 445.462 249.014C446.275 249.014 447.074 248.8 447.778 248.393C448.482 247.985 449.067 247.399 449.473 246.694C449.879 245.989 450.092 245.189 450.09 244.375V130.018C450.088 126.432 449.14 122.91 447.343 119.808C445.546 116.705 442.963 114.13 439.854 112.344Z" fill="#F47B56"/>
<path d="M248.537 10.646L434.089 117.526C436.071 118.669 437.717 120.314 438.861 122.295C440.006 124.277 440.608 126.524 440.609 128.812V214.888C440.608 215.711 440.391 216.52 439.98 217.233C439.568 217.947 438.977 218.54 438.265 218.953C437.553 219.366 436.746 219.584 435.923 219.587C435.1 219.589 434.291 219.375 433.577 218.967L244.348 110.304C243.64 109.897 243.051 109.311 242.642 108.604C242.232 107.897 242.017 107.094 242.017 106.277V14.429C242.017 12.874 242.844 11.437 244.188 10.657C244.848 10.2736 245.598 10.0708 246.362 10.0689C247.125 10.0669 247.876 10.266 248.538 10.646H248.537Z" fill="white"/>
<path d="M326.611 172.999C328.8 172.577 330.183 170.206 329.701 167.702C329.219 165.198 327.054 163.51 324.865 163.931C322.676 164.353 321.293 166.724 321.775 169.228C322.257 171.732 324.422 173.42 326.611 172.999Z" fill="#AB643C"/>
<path opacity="0.32" d="M298.41 127.427L384.64 179.296L427.235 154.503L351.126 110.15" fill="url(#paint3_linear)"/>
<path d="M404.97 117.102L311.746 60.192C311.247 59.9032 310.68 59.7535 310.103 59.7584C309.527 59.7634 308.962 59.9227 308.468 60.22C307.974 60.5173 307.568 60.9416 307.292 61.4487C307.017 61.9558 306.883 62.5274 306.903 63.104V95.53C306.899 96.1163 307.047 96.6937 307.332 97.206C307.617 97.7183 308.03 98.1483 308.53 98.454L401.742 154.158C402.739 154.725 403.962 154.718 404.952 154.138C405.439 153.853 405.842 153.446 406.122 152.956C406.402 152.466 406.548 151.912 406.546 151.348L407.033 121.118C407.069 120.327 406.897 119.54 406.536 118.836C406.174 118.132 405.634 117.534 404.97 117.103V117.102Z" fill="#E2AC00"/>
<path d="M382.667 133.789C386.01 138.47 391.89 139.779 395.785 136.726C399.679 133.673 400.128 127.402 396.785 122.733C393.44 118.064 387.56 116.743 383.665 119.796C379.771 122.848 379.323 129.107 382.667 133.789Z" fill="white"/>
<path d="M373.52 111.318L335.497 88.398C335.17 88.245 334.798 88.2194 334.454 88.3263C334.11 88.4333 333.818 88.6649 333.635 88.976C333.452 89.2873 333.392 89.6555 333.467 90.0088C333.541 90.362 333.744 90.6748 334.037 90.886L372.059 113.806C372.386 113.959 372.758 113.985 373.102 113.878C373.446 113.771 373.738 113.539 373.921 113.228C374.104 112.917 374.164 112.549 374.09 112.195C374.016 111.842 373.813 111.529 373.52 111.318ZM371.957 120.63L319.547 89.039C319.226 88.9288 318.876 88.9346 318.559 89.0556C318.242 89.1765 317.978 89.4049 317.811 89.7009C317.645 89.9969 317.588 90.3417 317.65 90.6754C317.712 91.0091 317.89 91.3105 318.151 91.527L370.496 123.13C370.823 123.283 371.195 123.309 371.539 123.202C371.883 123.095 372.175 122.863 372.358 122.552C372.541 122.241 372.601 121.873 372.527 121.519C372.453 121.166 372.25 120.853 371.957 120.642V120.629V120.63Z" fill="#F2F2F2"/>
<path d="M386.369 123.387L293.196 66.49C292.697 66.2012 292.13 66.0515 291.553 66.0564C290.977 66.0614 290.412 66.2208 289.918 66.518C289.424 66.8153 289.018 67.2396 288.742 67.7467C288.467 68.2538 288.333 68.8254 288.353 69.402V101.813C288.345 102.401 288.49 102.98 288.773 103.495C289.056 104.01 289.468 104.443 289.968 104.751L383.179 160.454C384.187 161.034 385.429 161.024 386.427 160.429C386.918 160.136 387.322 159.718 387.597 159.218C387.873 158.717 388.011 158.152 387.996 157.581L388.483 127.351C388.505 126.564 388.321 125.784 387.95 125.089C387.58 124.394 387.035 123.808 386.369 123.387Z" fill="#F47B56"/>
<path d="M364.065 140.074C367.409 144.755 373.289 146.064 377.184 143.011C381.078 139.958 381.526 133.686 378.183 129.018C374.839 124.348 368.959 123.028 365.065 126.08C361.17 129.133 360.722 135.392 364.065 140.074Z" fill="white"/>
<path d="M354.918 117.602L316.87 94.682C316.543 94.529 316.171 94.5034 315.827 94.6103C315.483 94.7173 315.19 94.9489 315.008 95.26C314.825 95.5713 314.765 95.9395 314.839 96.2928C314.914 96.646 315.117 96.9588 315.41 97.17L353.432 120.09C353.759 120.243 354.13 120.269 354.475 120.162C354.819 120.055 355.111 119.823 355.294 119.512C355.477 119.201 355.537 118.833 355.463 118.479C355.389 118.126 355.186 117.813 354.893 117.602H354.918ZM353.343 126.978L300.946 95.336C300.619 95.1831 300.247 95.1577 299.903 95.2648C299.558 95.3719 299.266 95.6038 299.084 95.915C298.901 96.2263 298.841 96.5945 298.915 96.9478C298.99 97.301 299.193 97.6138 299.486 97.825L351.895 129.415C352.222 129.568 352.593 129.594 352.938 129.487C353.282 129.38 353.574 129.148 353.757 128.837C353.94 128.526 354 128.157 353.925 127.804C353.851 127.451 353.648 127.138 353.355 126.927L353.343 126.978Z" fill="#F2F2F2"/>
<path d="M362.99 127.21L269.79 70.313C269.291 70.0241 268.724 69.8742 268.147 69.8789C267.571 69.8837 267.006 70.0429 266.512 70.34C266.018 70.6375 265.612 71.0618 265.337 71.5689C265.062 72.076 264.928 72.6475 264.948 73.224V105.636C264.944 106.222 265.092 106.8 265.377 107.312C265.662 107.824 266.075 108.254 266.575 108.56L359.786 164.264C360.794 164.844 362.036 164.834 363.035 164.238C363.525 163.945 363.929 163.527 364.205 163.027C364.48 162.527 364.618 161.962 364.603 161.391L365.09 131.16C365.111 130.376 364.928 129.601 364.56 128.909C364.192 128.216 363.651 127.631 362.99 127.21Z" fill="#68E1FD"/>
<path d="M362.99 127.21L269.79 70.313C269.291 70.0241 268.724 69.8742 268.147 69.8789C267.571 69.8837 267.006 70.0429 266.512 70.34C266.018 70.6375 265.612 71.0618 265.337 71.5689C265.062 72.076 264.928 72.6475 264.948 73.224V105.636C264.944 106.222 265.092 106.8 265.377 107.312C265.662 107.824 266.075 108.254 266.575 108.56L359.786 164.264C360.794 164.844 362.036 164.834 363.035 164.238C363.525 163.945 363.929 163.527 364.205 163.027C364.48 162.527 364.618 161.962 364.603 161.391L365.09 131.16C365.111 130.376 364.928 129.601 364.56 128.909C364.192 128.216 363.651 127.631 362.99 127.21Z" fill="#68E1FD"/>
<path d="M340.673 143.896C344.016 148.577 349.897 149.886 353.791 146.833C357.686 143.78 358.134 137.508 354.791 132.84C351.447 128.171 345.566 126.85 341.672 129.903C337.778 132.955 337.368 139.214 340.672 143.896H340.673Z" fill="white"/>
<path d="M331.526 121.425L293.491 98.505C293.164 98.352 292.792 98.3264 292.448 98.4333C292.104 98.5403 291.811 98.7719 291.629 99.083C291.446 99.3942 291.386 99.7623 291.46 100.116C291.534 100.469 291.737 100.782 292.03 100.993L330.053 123.913C330.38 124.066 330.751 124.092 331.096 123.985C331.44 123.878 331.732 123.646 331.915 123.335C332.098 123.024 332.158 122.655 332.083 122.302C332.009 121.949 331.806 121.636 331.513 121.425H331.526ZM329.95 130.75L277.541 99.158C277.214 99.0051 276.842 98.9796 276.498 99.0868C276.153 99.1939 275.861 99.4258 275.679 99.737C275.496 100.048 275.436 100.417 275.51 100.77C275.585 101.123 275.788 101.436 276.081 101.647L328.49 133.237C328.817 133.39 329.188 133.416 329.533 133.309C329.877 133.202 330.169 132.97 330.352 132.659C330.535 132.348 330.595 131.979 330.52 131.626C330.446 131.273 330.243 130.96 329.95 130.749V130.75Z" fill="#F2F2F2"/>
<path d="M240.672 124.028C234.648 129.22 230.094 135.903 227.464 143.408C222.826 156.235 234.42 177.192 234.42 177.192L252.458 162.892" fill="#FF8F6F"/>
<path d="M238.724 293.602L233.831 290.896L235.111 283.893C235.111 283.893 242.401 284.585 243.041 287.176" fill="#003B94"/>
<path d="M240.518 293.5C241.62 292.82 242.773 292.217 243.913 291.614C246.743 290.062 250.831 288.459 252.573 285.547C252.93 284.958 253.099 284.275 253.058 283.587C253.017 282.9 252.768 282.241 252.343 281.699C249.78 278.595 244.169 283.7 241.299 280.263C240.736 279.583 240.467 268.796 240.467 268.796L229.552 271.746C229.552 271.746 227.707 293.422 227.912 294.756C228.117 296.09 231.871 297.322 231.871 297.322C232.989 297.084 234.056 296.65 235.022 296.039C236.162 295.205 235.124 285.034 236.585 286.458C238.045 287.882 238.685 293.448 238.685 293.448C239.292 293.54 239.907 293.558 240.518 293.499V293.5Z" fill="#F47B56"/>
<path d="M259.568 304.08L254.674 301.413L255.954 294.41C255.954 294.41 263.244 295.103 263.884 297.693" fill="#003B94"/>
<path d="M261.412 303.978C262.514 303.298 263.667 302.696 264.807 302.093C267.638 300.541 271.725 298.938 273.467 296.026C273.824 295.437 273.993 294.754 273.952 294.066C273.911 293.379 273.662 292.72 273.237 292.178C270.674 289.074 265.063 294.179 262.194 290.742C261.63 290.062 261.361 279.275 261.361 279.275L250.446 282.225C250.446 282.225 248.589 303.978 248.794 305.261C248.999 306.543 252.752 307.826 252.752 307.826C253.87 307.588 254.937 307.154 255.904 306.543C257.044 305.71 256.006 295.539 257.467 296.963C258.927 298.386 259.567 303.953 259.567 303.953C260.179 304.037 260.798 304.046 261.412 303.978Z" fill="#F47B56"/>
<path d="M224.005 233.614L220.789 276.672C220.789 276.672 225.914 283.752 243.093 279.814L243.259 250.788L224.005 233.614ZM243.849 242.144C243.477 245.85 243.849 286.74 243.849 286.74C243.849 286.74 248.601 295.641 269.291 286.74L268.996 251.994" fill="#3E2928"/>
<path d="M222.403 247.838C223.813 248.813 224.299 243.798 225.773 244.658C231.132 247.775 236.821 250.287 242.734 252.148H242.862C243.003 252.079 243.156 252.04 243.313 252.032C243.469 252.024 243.626 252.047 243.773 252.101C243.92 252.155 244.055 252.238 244.169 252.345C244.283 252.453 244.375 252.582 244.438 252.725C248.091 253.816 251.809 254.673 255.571 255.29C260.401 256.06 264.397 252.482 269.355 252.238C269.355 233.23 269.445 179.129 261.361 167.586L237.443 159.531C237.328 161.506 225.837 174.845 226.118 191.109C226.438 209.437 224.056 226.727 223.646 232.46C223.582 233.435 222.455 246.8 222.403 247.838Z" fill="#3E2928"/>
<path d="M263.564 145.73L261.361 167.534C261.361 167.534 243.516 168.253 235.829 162.943V144.447" fill="#FF8F6F"/>
<path d="M286.252 131.378L284.433 133.866C285.403 131.842 286.259 129.766 286.995 127.646C287.508 126.196 285.189 125.619 284.677 127.068L284.407 127.812C284.63 127.042 284.839 126.269 285.035 125.49C285.076 125.337 285.085 125.177 285.064 125.02C285.042 124.863 284.989 124.712 284.909 124.575C284.828 124.439 284.721 124.32 284.594 124.225C284.467 124.13 284.322 124.062 284.169 124.024C284.015 123.985 283.855 123.978 283.698 124.002C283.542 124.026 283.391 124.081 283.256 124.164C283.121 124.247 283.003 124.356 282.911 124.484C282.818 124.613 282.752 124.759 282.716 124.913C282.214 126.926 281.611 128.912 280.91 130.865C281.302 129.131 281.584 127.374 281.756 125.605C281.91 124.08 279.514 124.144 279.373 125.605C279.174 127.619 278.814 129.614 278.297 131.57C278.297 130.886 278.233 130.202 278.105 129.518C278.088 129.347 278.034 129.182 277.948 129.034C277.862 128.886 277.745 128.758 277.605 128.658C277.54 128.39 277.463 128.124 277.375 127.863C277.285 127.594 277.102 127.366 276.86 127.218C276.618 127.071 276.331 127.014 276.051 127.057C275.771 127.1 275.515 127.24 275.328 127.454C275.141 127.667 275.036 127.939 275.03 128.223L274.876 137.201C274.443 138.131 273.877 138.996 273.198 139.766C274.351 140.564 275.463 141.42 276.529 142.331C277.48 143.136 278.387 143.992 279.245 144.896C280.011 143.942 280.75 142.967 281.461 141.972C281.549 141.897 281.627 141.811 281.691 141.715C283.825 138.554 286.029 135.441 288.302 132.378C289.25 131.326 287.162 130.159 286.252 131.378Z" fill="#FFB5A9"/>
<path d="M252.24 125.85C252.24 125.85 260.67 128.12 264.09 133.545C266.232 137.301 268.12 141.196 269.74 145.205L275.965 135.52C275.965 135.52 283.524 137.842 286.521 141.562C286.521 141.562 277.554 161.185 269.739 162.866C261.925 164.546 253.623 151.348 253.623 151.348C253.623 151.348 251.907 156.863 252.24 150.976" fill="#FF8F6F"/>
<path d="M257.595 146.82C255.144 144.823 253.295 142.186 252.253 139.202C251.24 135.752 252.509 132.724 253.687 129.518C254.963 126.339 255.708 122.972 255.891 119.552C255.993 116.192 255.609 112.832 255.378 109.483C255.345 109.34 255.345 109.19 255.378 109.047C254.251 105.264 251.945 102.057 247.398 101.672C235.624 100.672 234.958 113.729 235.048 119.039C235.138 124.349 235.701 127.94 231.794 130.159C227.886 132.378 225.068 138.201 228.796 142.909C232.524 147.615 229.18 145.897 226.695 150.078C224.21 154.259 224.85 159.48 229.949 161.365C235.048 163.25 258.748 159.71 260.925 157.517C261.698 156.633 262.098 155.484 262.04 154.311C261.509 151.36 259.931 148.701 257.595 146.821V146.82Z" fill="#007F68"/>
<path d="M269.176 39.132C271.172 42.008 272.325 45.3841 272.506 48.88C272.729 50.4805 272.341 52.1064 271.418 53.433C271.025 53.8657 270.5 54.155 269.924 54.255C269.348 54.355 268.756 54.26 268.24 53.985C267.593 53.7266 267.008 53.3332 266.524 52.831C266.089 52.4225 265.718 51.9513 265.422 51.433L265.115 50.83C265.031 50.9877 264.928 51.1342 264.807 51.266C264.502 51.5039 264.14 51.6586 263.757 51.715C263.116 51.8337 262.454 51.7531 261.861 51.484C260.445 50.8702 259.266 49.8123 258.504 48.47C257.585 47.0107 257.072 45.3327 257.018 43.609C256.924 42.9195 256.982 42.2178 257.188 41.5531C257.394 40.8885 257.743 40.2768 258.21 39.761C258.616 39.3691 259.132 39.1119 259.689 39.0245C260.246 38.9372 260.817 39.024 261.323 39.273C261.836 39.478 262.309 39.773 262.719 40.146C263.069 40.443 263.378 40.783 263.641 41.159L263.871 41.569V40.428L266.434 41.428L266.69 48.637C266.708 49.153 266.868 49.654 267.152 50.086C267.392 50.503 267.761 50.831 268.202 51.022C269.44 51.51 270.012 50.441 269.919 47.816C269.79 45.2163 268.933 42.7052 267.446 40.569C266.111 38.397 264.125 36.7007 261.771 35.721C260.917 35.2863 259.952 35.1187 259.001 35.2399C258.051 35.3612 257.159 35.7658 256.441 36.401C255.676 37.1712 255.093 38.1035 254.736 39.129C254.379 40.1545 254.257 41.247 254.379 42.326C254.525 45.0751 255.41 47.7339 256.941 50.022C258.159 52.2805 260.079 54.0813 262.411 55.152C263.223 55.492 264.095 55.662 264.974 55.652C265.546 55.691 266.119 55.5854 266.639 55.345L267.152 55.062L268.702 57.948L268.445 58.128C268.202 58.2647 267.95 58.3846 267.69 58.487C267.28 58.664 266.85 58.785 266.408 58.847C265.843 58.9229 265.27 58.9229 264.705 58.847C263.962 58.7582 263.234 58.5726 262.54 58.295C260.567 57.4451 258.814 56.1553 257.415 54.524C255.757 52.6885 254.415 50.5907 253.444 48.316C252.471 46.1428 251.915 43.8064 251.804 41.428C251.666 39.428 252.074 37.429 252.983 35.644C253.737 34.1463 255.041 32.9975 256.621 32.437C258.277 31.8912 260.076 31.9829 261.668 32.694C264.777 34.0099 267.401 36.2597 269.176 39.132ZM263.526 48.252C263.946 47.714 264.136 47.031 264.051 46.353C264.03 45.5174 263.797 44.7009 263.372 43.981C263.025 43.3526 262.48 42.8566 261.822 42.57C261.57 42.4397 261.284 42.3895 261.002 42.4261C260.72 42.4628 260.457 42.5845 260.246 42.775C260.025 43.0269 259.86 43.3233 259.763 43.6441C259.666 43.9649 259.639 44.3027 259.683 44.635C259.712 45.481 259.963 46.304 260.413 47.02C260.783 47.672 261.353 48.185 262.04 48.483C262.28 48.6062 262.554 48.6502 262.82 48.6087C263.087 48.5672 263.334 48.4424 263.526 48.252ZM420.433 178.013C422.432 180.887 423.585 184.264 423.763 187.761C423.986 189.362 423.598 190.987 422.675 192.314C422.281 192.745 421.756 193.032 421.181 193.132C420.606 193.232 420.014 193.138 419.498 192.866C418.852 192.604 418.268 192.211 417.781 191.712C417.348 191.301 416.977 190.83 416.679 190.313L416.372 189.711C416.285 189.867 416.182 190.013 416.064 190.147C415.76 190.387 415.398 190.542 415.014 190.596C414.379 190.724 413.72 190.647 413.131 190.378C411.713 189.761 410.534 188.698 409.774 187.351C408.846 185.89 408.329 184.207 408.275 182.477C408.178 181.787 408.234 181.085 408.44 180.42C408.646 179.754 408.997 179.143 409.467 178.629C409.871 178.238 410.385 177.982 410.94 177.895C411.495 177.808 412.063 177.894 412.567 178.142C413.081 178.346 413.554 178.641 413.963 179.014C414.313 179.316 414.623 179.661 414.886 180.04L415.129 180.45V179.309L417.691 180.296L417.948 187.505C417.97 188.02 418.129 188.52 418.408 188.954C418.65 189.371 419.018 189.699 419.459 189.89C420.74 190.378 421.266 189.313 421.189 186.684C421.059 184.081 420.202 181.565 418.716 179.424C417.381 177.26 415.4 175.569 413.054 174.589C412.201 174.154 411.237 173.986 410.287 174.104C409.336 174.223 408.444 174.624 407.724 175.256C406.962 176.035 406.386 176.976 406.038 178.009C405.69 179.041 405.579 180.139 405.714 181.22C405.857 183.969 406.742 186.628 408.275 188.915C409.541 191.12 411.481 192.86 413.81 193.879C414.622 194.217 415.493 194.392 416.372 194.392C416.944 194.425 417.515 194.32 418.037 194.084L418.55 193.802L420.1 196.688L419.844 196.868C419.6 197.005 419.348 197.125 419.088 197.227C418.676 197.397 418.246 197.517 417.807 197.586C417.237 197.662 416.66 197.662 416.09 197.586C415.351 197.493 414.628 197.303 413.938 197.022C411.966 196.176 410.213 194.89 408.813 193.263C407.155 191.423 405.814 189.321 404.843 187.043C403.869 184.87 403.313 182.534 403.203 180.155C403.064 178.16 403.471 176.164 404.381 174.383C405.137 172.884 406.439 171.732 408.019 171.164C409.68 170.624 411.482 170.715 413.079 171.421C416.152 172.806 418.722 175.109 420.433 178.013ZM414.783 187.133C414.994 186.868 415.149 186.563 415.242 186.237C415.334 185.911 415.361 185.57 415.321 185.234C415.299 184.397 415.061 183.58 414.63 182.862C414.289 182.233 413.748 181.736 413.092 181.451C412.841 181.319 412.556 181.267 412.275 181.301C411.993 181.336 411.729 181.455 411.517 181.643C411.292 181.893 411.124 182.188 411.024 182.51C410.925 182.831 410.896 183.17 410.94 183.503C410.97 184.345 411.221 185.163 411.67 185.876C412.039 186.531 412.61 187.048 413.297 187.351C413.536 187.476 413.808 187.522 414.075 187.483C414.342 187.444 414.59 187.321 414.783 187.133Z" fill="#F47B56"/>
<path style="mix-blend-mode:multiply" opacity="0.25" d="M165.139 232.704L121.774 208L78.423 232.754C78.423 232.754 102.545 247.837 124.132 260.51C137.839 250.813 150.022 239.719 165.139 232.703V232.704Z" fill="url(#paint4_linear)"/>
<g filter="url(#filter0_d)">
<path d="M50.93 167.881V221.751L92.898 245.786L140.285 217.761V163.891" fill="black"/>
</g>
<path d="M50.93 167.881V221.751L92.898 245.786L140.285 217.761V163.891" fill="#FF9271"/>
<path d="M92.899 191.917V245.787L140.286 217.761V163.891L92.899 191.917Z" fill="#DF5C34"/>
<path d="M50.93 167.88L99.624 140.126L140.286 163.893L92.899 191.918L50.93 167.88Z" fill="#F47B56"/>
<path d="M94.013 152.49C98.9502 152.157 103.88 153.242 108.22 155.619C110.706 157.081 112.064 158.607 112.256 160.198C112.448 161.788 111.628 163.173 109.694 164.341C108.777 164.908 107.766 165.307 106.709 165.521C105.84 165.726 104.949 165.816 104.057 165.79L103.083 165.713C103.174 165.93 103.234 166.159 103.263 166.393C103.232 166.947 103.055 167.482 102.75 167.945C102.243 168.805 101.519 169.517 100.65 170.01C98.6253 171.213 96.3046 171.826 93.95 171.78C91.5135 171.846 89.1062 171.238 86.993 170.023C84.994 168.843 83.97 167.457 83.893 165.867C83.9005 165.025 84.1447 164.202 84.5978 163.492C85.0508 162.782 85.6944 162.214 86.455 161.852C87.1848 161.397 87.9795 161.055 88.812 160.839C89.4758 160.647 90.1591 160.531 90.849 160.493H91.554L90.272 159.723L93.872 157.479L102.212 162.391C102.85 162.734 103.563 162.914 104.287 162.914C105.011 162.914 105.724 162.734 106.362 162.391C108.131 161.288 107.499 159.839 104.467 158.043C101.245 156.269 97.5816 155.454 93.911 155.696C90.0205 155.744 86.2147 156.838 82.893 158.864C79.87 160.754 78.371 163.007 78.397 165.624C78.397 168.188 79.998 170.472 83.111 172.306C86.5087 174.206 90.3675 175.125 94.257 174.961C98.1292 175.024 101.943 174.012 105.274 172.036C106.427 171.353 107.461 170.486 108.336 169.471C108.921 168.85 109.358 168.105 109.616 167.291L109.796 166.483L114.549 166.752C114.557 166.897 114.557 167.042 114.549 167.188C114.462 167.581 114.346 167.966 114.203 168.342C113.997 168.945 113.721 169.522 113.383 170.062C112.895 170.789 112.328 171.459 111.693 172.062C110.855 172.87 109.931 173.585 108.938 174.192C106.078 175.909 102.91 177.05 99.612 177.552C96.0182 178.18 92.3487 178.244 88.735 177.744C85.4501 177.357 82.2753 176.319 79.396 174.691C77.0711 173.46 75.2095 171.507 74.092 169.125C73.6353 168.086 73.3994 166.963 73.3994 165.828C73.3994 164.694 73.6353 163.571 74.092 162.532C75.199 160.107 77.0414 158.092 79.358 156.773C83.7719 154.06 88.8328 152.581 94.013 152.489V152.49ZM98.676 165.752C98.506 164.861 97.906 164.112 97.075 163.751C96.0659 163.156 94.9163 162.842 93.745 162.84C92.6561 162.799 91.5787 163.075 90.644 163.635C90.2674 163.819 89.9486 164.103 89.7227 164.456C89.4967 164.809 89.3723 165.217 89.363 165.636C89.48 166.526 90.053 167.29 90.875 167.65C91.9071 168.24 93.0805 168.537 94.269 168.51C95.4116 168.539 96.5393 168.245 97.523 167.663C97.8878 167.496 98.196 167.226 98.41 166.887C98.624 166.548 98.7345 166.153 98.728 165.752" fill="#3E2928"/>
<defs>
<filter id="filter0_d" x="0.929993" y="138.891" width="189.355" height="181.895" filterUnits="userSpaceOnUse" color-interpolation-filters="sRGB">
<feFlood flood-opacity="0" result="BackgroundImageFix"/>
<feColorMatrix in="SourceAlpha" type="matrix" values="0 0 0 0 0 0 0 0 0 0 0 0 0 0 0 0 0 0 127 0" result="hardAlpha"/>
<feOffset dy="25"/>
<feGaussianBlur stdDeviation="25"/>
<feColorMatrix type="matrix" values="0 0 0 0 0.209139 0 0 0 0 0.0691446 0 0 0 0 0.478091 0 0 0 0.497159 0"/>
<feBlend mode="normal" in2="BackgroundImageFix" result="effect1_dropShadow"/>
<feBlend mode="normal" in="SourceGraphic" in2="effect1_dropShadow" result="shape"/>
</filter>
<linearGradient id="paint0_linear" x1="313.269" y1="203.95" x2="299.327" y2="222.867" gradientUnits="userSpaceOnUse">
<stop stop-color="#78B46A"/>
<stop offset="0.03" stop-color="#7F3500"/>
<stop offset="1" stop-color="white"/>
</linearGradient>
<linearGradient id="paint1_linear" x1="261.707" y1="286.411" x2="232.466" y2="318.513" gradientUnits="userSpaceOnUse">
<stop stop-color="#78B46A"/>
<stop offset="0.03" stop-color="#7F3500"/>
<stop offset="1" stop-color="white"/>
</linearGradient>
<linearGradient id="paint2_linear" x1="198.165" y1="151.724" x2="176.24" y2="175.796" gradientUnits="userSpaceOnUse">
<stop stop-color="#78B46A"/>
<stop offset="0.03" stop-color="#7F3500"/>
<stop offset="1" stop-color="white"/>
</linearGradient>
<linearGradient id="paint3_linear" x1="402.779" y1="152.045" x2="389.641" y2="142.452" gradientUnits="userSpaceOnUse">
<stop stop-color="white" stop-opacity="0"/>
<stop offset="0.99" stop-color="#DC841E"/>
</linearGradient>
<linearGradient id="paint4_linear" x1="149.689" y1="222.46" x2="120.02" y2="255.032" gradientUnits="userSpaceOnUse">
<stop stop-color="#78B46A"/>
<stop offset="0.03" stop-color="#7F3500"/>
<stop offset="1" stop-color="white"/>
</linearGradient>
</defs>
</svg>
